<?xml version="1.0" encoding="UTF-8" standalone="no"?>
<!-- Created with Inkscape (http://www.inkscape.org/) -->

<svg
   xmlns:dc="http://purl.org/dc/elements/1.1/"
   xmlns:cc="http://creativecommons.org/ns#"
   xmlns:rdf="http://www.w3.org/1999/02/22-rdf-syntax-ns#"
   xmlns:svg="http://www.w3.org/2000/svg"
   xmlns="http://www.w3.org/2000/svg"
   xmlns:sodipodi="http://sodipodi.sourceforge.net/DTD/sodipodi-0.dtd"
   xmlns:inkscape="http://www.inkscape.org/namespaces/inkscape"
   width="139.85091mm"
   height="204.33533mm"
   viewBox="0 0 139.85091 204.33533"
   version="1.1"
   id="svg8"
   inkscape:version="0.92.4 (5da689c313, 2019-01-14)"
   sodipodi:docname="silouette.svg">
  <defs
     id="defs2" />
  <sodipodi:namedview
     id="base"
     pagecolor="#ffffff"
     bordercolor="#666666"
     borderopacity="1.0"
     inkscape:pageopacity="0.0"
     inkscape:pageshadow="2"
     inkscape:zoom="0.7"
     inkscape:cx="-43.904736"
     inkscape:cy="356.91146"
     inkscape:document-units="mm"
     inkscape:current-layer="layer1"
     showgrid="false"
     inkscape:snap-intersection-paths="true"
     inkscape:window-width="2560"
     inkscape:window-height="1356"
     inkscape:window-x="-8"
     inkscape:window-y="-8"
     inkscape:window-maximized="1" />
  <metadata
     id="metadata5">
    <rdf:RDF>
      <cc:Work
         rdf:about="">
        <dc:format>image/svg+xml</dc:format>
        <dc:type
           rdf:resource="http://purl.org/dc/dcmitype/StillImage" />
        <dc:title></dc:title>
      </cc:Work>
    </rdf:RDF>
  </metadata>
  <g
     inkscape:label="Layer 1"
     inkscape:groupmode="layer"
     id="layer1"
     transform="translate(-38.09402,-33.928456)">
    <path
       style="opacity:1;fill:#000000;fill-opacity:1;fill-rule:nonzero;stroke:#d58080;stroke-width:0;stroke-linejoin:round;stroke-miterlimit:4;stroke-dasharray:none;stroke-opacity:1"
       d="M 107.75489,33.928457 A 48.002975,45.357142 0 0 0 59.751614,79.285895 48.002975,45.357142 0 0 0 107.75489,124.64282 48.002975,45.357142 0 0 0 155.75764,79.285895 48.002975,45.357142 0 0 0 107.75489,33.928457 Z M 60.400668,127.44006 c -12.357679,0 -22.306647,9.94845 -22.306647,22.30613 v 34.00671 c 0,9.49771 5.877081,17.57097 14.2074,20.79977 -1.644854,-3.42095 -2.565734,-7.26122 -2.565734,-11.32438 v -39.72884 c 0,-14.43709 11.622813,-26.05939 26.059908,-26.05939 z m 19.660299,0 c -12.357677,0 -22.306132,9.94846 -22.306132,22.30613 v 34.00671 54.51088 H 157.75494 v -61.23191 -27.28568 c 0,-12.35767 -9.94898,-22.30613 -22.30665,-22.30613 z m 60.182373,0 c 14.43711,0 26.05991,11.6223 26.05991,26.05939 v 39.72884 c 0,4.06316 -0.92088,7.90343 -2.56573,11.32438 8.33032,-3.2288 14.2074,-11.30206 14.2074,-20.79977 v -34.00671 c 0,-12.35768 -9.94897,-22.30613 -22.30665,-22.30613 z"
       id="path815"
       inkscape:connector-curvature="0" />
    <rect
       style="opacity:1;fill:#8a8a8a;fill-opacity:1;fill-rule:nonzero;stroke:#d58080;stroke-width:0;stroke-linejoin:round;stroke-miterlimit:4;stroke-dasharray:none;stroke-opacity:1"
       id="rect930"
       width="74.579819"
       height="37.950104"
       x="34.426765"
       y="165.13647"
       ry="2.7026429"
       transform="matrix(0.98258347,-0.18582177,0.20235342,0.97931256,0,0)" />
  </g>
</svg>
